<?xml version="1.0" encoding="utf-8"?>
<svg xmlns="http://www.w3.org/2000/svg" viewBox="0 0 256 256" shape-rendering="crispEdges">
<!-- 圆角深色背景（桌面图标专用，与加载页面背景色一致） -->
<rect width="256" height="256" rx="48" ry="48" fill="#0f1923"/>
<!-- 像素小怪兽（大尺寸，每像素 = 22px） -->
<style>
    .s { fill: #00FF9D; }
</style>
<!-- Row 2 -->
<rect class="s" x="79" y="57" width="22" height="22"/>
<rect class="s" x="101" y="57" width="22" height="22"/>
<rect class="s" x="123" y="57" width="22" height="22"/>
<rect class="s" x="145" y="57" width="22" height="22"/>
<rect class="s" x="167" y="57" width="22" height="22"/>
<!-- Row 3 -->
<rect class="s" x="57" y="79" width="22" height="22"/>
<rect class="s" x="101" y="79" width="22" height="22"/>
<rect class="s" x="123" y="79" width="22" height="22"/>
<rect class="s" x="167" y="79" width="22" height="22"/>
<rect class="s" x="189" y="79" width="22" height="22"/>
<!-- Row 4 -->
<rect class="s" x="57" y="101" width="22" height="22"/>
<rect class="s" x="79" y="101" width="22" height="22"/>
<rect class="s" x="101" y="101" width="22" height="22"/>
<rect class="s" x="123" y="101" width="22" height="22"/>
<rect class="s" x="145" y="101" width="22" height="22"/>
<rect class="s" x="167" y="101" width="22" height="22"/>
<rect class="s" x="189" y="101" width="22" height="22"/>
<!-- Row 5 -->
<rect class="s" x="79" y="123" width="22" height="22"/>
<rect class="s" x="101" y="123" width="22" height="22"/>
<rect class="s" x="123" y="123" width="22" height="22"/>
<rect class="s" x="145" y="123" width="22" height="22"/>
<rect class="s" x="167" y="123" width="22" height="22"/>
<!-- Row 6 -->
<rect class="s" x="57" y="145" width="22" height="22"/>
<rect class="s" x="79" y="145" width="22" height="22"/>
<rect class="s" x="101" y="145" width="22" height="22"/>
<rect class="s" x="145" y="145" width="22" height="22"/>
<rect class="s" x="167" y="145" width="22" height="22"/>
<rect class="s" x="189" y="145" width="22" height="22"/>
<!-- Row 7 -->
<rect class="s" x="57" y="167" width="22" height="22"/>
<rect class="s" x="101" y="167" width="22" height="22"/>
<rect class="s" x="145" y="167" width="22" height="22"/>
<rect class="s" x="189" y="167" width="22" height="22"/>
<!-- Row 8 -->
<rect class="s" x="57" y="189" width="22" height="22"/>
<rect class="s" x="101" y="189" width="22" height="22"/>
<rect class="s" x="145" y="189" width="22" height="22"/>
<rect class="s" x="189" y="189" width="22" height="22"/>
</svg>
