<?xml version="1.0" encoding="utf-8"?>
<svg xmlns="http://www.w3.org/2000/svg" viewBox="0 0 9 9" shape-rendering="crispEdges">
<style>
    .s { fill: #00FF9D; }
</style>
<!-- Row 2 -->
<rect class="s" x="2" y="1" width="1" height="1"/>
<rect class="s" x="3" y="1" width="1" height="1"/>
<rect class="s" x="4" y="1" width="1" height="1"/>
<rect class="s" x="5" y="1" width="1" height="1"/>
<rect class="s" x="6" y="1" width="1" height="1"/>
<!-- Row 3 -->
<rect class="s" x="1" y="2" width="1" height="1"/>
<rect class="s" x="3" y="2" width="1" height="1"/>
<rect class="s" x="4" y="2" width="1" height="1"/>
<rect class="s" x="6" y="2" width="1" height="1"/>
<rect class="s" x="7" y="2" width="1" height="1"/>
<!-- Row 4 -->
<rect class="s" x="1" y="3" width="1" height="1"/>
<rect class="s" x="2" y="3" width="1" height="1"/>
<rect class="s" x="3" y="3" width="1" height="1"/>
<rect class="s" x="4" y="3" width="1" height="1"/>
<rect class="s" x="5" y="3" width="1" height="1"/>
<rect class="s" x="6" y="3" width="1" height="1"/>
<rect class="s" x="7" y="3" width="1" height="1"/>
<!-- Row 5 -->
<rect class="s" x="2" y="4" width="1" height="1"/>
<rect class="s" x="3" y="4" width="1" height="1"/>
<rect class="s" x="4" y="4" width="1" height="1"/>
<rect class="s" x="5" y="4" width="1" height="1"/>
<rect class="s" x="6" y="4" width="1" height="1"/>
<!-- Row 6 -->
<rect class="s" x="1" y="5" width="1" height="1"/>
<rect class="s" x="2" y="5" width="1" height="1"/>
<rect class="s" x="3" y="5" width="1" height="1"/>
<rect class="s" x="5" y="5" width="1" height="1"/>
<rect class="s" x="6" y="5" width="1" height="1"/>
<rect class="s" x="7" y="5" width="1" height="1"/>
<!-- Row 7 -->
<rect class="s" x="1" y="6" width="1" height="1"/>
<rect class="s" x="3" y="6" width="1" height="1"/>
<rect class="s" x="5" y="6" width="1" height="1"/>
<rect class="s" x="7" y="6" width="1" height="1"/>
<!-- Row 8 -->
<rect class="s" x="1" y="7" width="1" height="1"/>
<rect class="s" x="3" y="7" width="1" height="1"/>
<rect class="s" x="5" y="7" width="1" height="1"/>
<rect class="s" x="7" y="7" width="1" height="1"/>
</svg>
